{"glyphs":{"0":{"ha":1215,"x_min":174,"x_max":1042,"o":"m 347 0 l 347 174 l 174 174 l 174 694 l 347 694 l 347 868 l 868 868 l 868 694 l 1042 694 l 1042 174 l 868 174 l 868 0 l 347 0 m 521 181 l 694 181 l 694 688 l 521 688 l 521 181 z "},"1":{"ha":1042,"x_min":174,"x_max":868,"o":"m 174 0 l 174 174 l 347 174 l 347 694 l 174 694 l 174 868 l 694 868 l 694 174 l 868 174 l 868 0 l 174 0 z "},"2":{"ha":1215,"x_min":174,"x_max":1042,"o":"m 174 0 l 174 347 l 347 347 l 347 521 l 694 521 l 694 694 l 174 694 l 174 868 l 868 868 l 868 694 l 1042 694 l 1042 521 l 868 521 l 868 347 l 521 347 l 521 174 l 1042 174 l 1042 0 l 174 0 z "},"3":{"ha":1215,"x_min":174,"x_max":1042,"o":"m 174 0 l 174 174 l 694 174 l 694 347 l 347 347 l 347 521 l 694 521 l 694 694 l 174 694 l 174 868 l 868 868 l 868 694 l 1042 694 l 1042 521 l 868 521 l 868 347 l 1042 347 l 1042 174 l 868 174 l 868 0 l 174 0 z "},"4":{"ha":1215,"x_min":174,"x_max":1042,"o":"m 521 0 l 521 347 l 174 347 l 174 868 l 868 868 l 868 521 l 1042 521 l 1042 347 l 868 347 l 868 0 l 521 0 z "},"5":{"ha":1215,"x_min":174,"x_max":1042,"o":"m 174 0 l 174 174 l 694 174 l 694 347 l 174 347 l 174 868 l 1042 868 l 1042 694 l 521 694 l 521 521 l 868 521 l 868 347 l 1042 347 l 1042 174 l 868 174 l 868 0 l 174 0 z "},"6":{"ha":1215,"x_min":174,"x_max":1042,"o":"m 347 0 l 347 174 l 174 174 l 174 694 l 347 694 l 347 868 l 868 868 l 868 694 l 521 694 l 521 521 l 868 521 l 868 347 l 1042 347 l 1042 174 l 868 174 l 868 0 l 347 0 m 521 174 l 694 174 l 694 347 l 521 347 l 521 174 z "},"7":{"ha":1215,"x_min":174,"x_max":1042,"o":"m 347 0 l 347 347 l 521 347 l 521 521 l 694 521 l 694 694 l 174 694 l 174 868 l 1042 868 l 1042 521 l 868 521 l 868 347 l 694 347 l 694 0 l 347 0 z "},"8":{"ha":1215,"x_min":174,"x_max":1042,"o":"m 347 0 l 347 174 l 174 174 l 174 347 l 347 347 l 347 521 l 174 521 l 174 694 l 347 694 l 347 868 l 868 868 l 868 694 l 1042 694 l 1042 521 l 868 521 l 868 347 l 1042 347 l 1042 174 l 868 174 l 868 0 l 347 0 m 521 528 l 694 528 l 694 688 l 521 688 l 521 528 m 521 181 l 694 181 l 694 340 l 521 340 l 521 181 z "},"9":{"ha":1215,"x_min":174,"x_max":1042,"o":"m 347 0 l 347 174 l 694 174 l 694 347 l 347 347 l 347 521 l 174 521 l 174 694 l 347 694 l 347 868 l 868 868 l 868 694 l 1042 694 l 1042 174 l 868 174 l 868 0 l 347 0 m 521 521 l 694 521 l 694 694 l 521 694 l 521 521 z "},"A":{"ha":1215,"x_min":174,"x_max":1042,"o":"m 174 0 l 174 694 l 347 694 l 347 868 l 868 868 l 868 694 l 1042 694 l 1042 0 l 694 0 l 694 347 l 521 347 l 521 0 l 174 0 m 521 521 l 694 521 l 694 688 l 521 688 l 521 521 z "},"Á":{"ha":1215,"x_min":174,"x_max":1042,"o":"m 174 0 l 174 694 l 347 694 l 347 868 l 868 868 l 868 694 l 1042 694 l 1042 0 l 694 0 l 694 347 l 521 347 l 521 0 l 174 0 m 521 521 l 694 521 l 694 688 l 521 688 l 521 521 m 347 1042 l 347 1215 l 521 1215 l 521 1389 l 868 1389 l 868 1215 l 694 1215 l 694 1042 l 347 1042 z "},"Â":{"ha":1215,"x_min":174,"x_max":1042,"o":"m 174 1042 l 174 1215 l 347 1215 l 347 1389 l 868 1389 l 868 1215 l 1042 1215 l 1042 1042 l 694 1042 l 694 1215 l 521 1215 l 521 1042 l 174 1042 m 174 0 l 174 694 l 347 694 l 347 868 l 868 868 l 868 694 l 1042 694 l 1042 0 l 694 0 l 694 347 l 521 347 l 521 0 l 174 0 m 521 521 l 694 521 l 694 688 l 521 688 l 521 521 z "},"Ä":{"ha":1215,"x_min":174,"x_max":1042,"o":"m 174 0 l 174 694 l 347 694 l 347 868 l 868 868 l 868 694 l 1042 694 l 1042 0 l 694 0 l 694 347 l 521 347 l 521 0 l 174 0 m 521 521 l 694 521 l 694 688 l 521 688 l 521 521 m 694 1042 l 694 1215 l 1042 1215 l 1042 1042 l 694 1042 m 174 1042 l 174 1215 l 521 1215 l 521 1042 l 174 1042 z "},"À":{"ha":1215,"x_min":174,"x_max":1042,"o":"m 174 0 l 174 694 l 347 694 l 347 868 l 868 868 l 868 694 l 1042 694 l 1042 0 l 694 0 l 694 347 l 521 347 l 521 0 l 174 0 m 521 521 l 694 521 l 694 688 l 521 688 l 521 521 m 521 1042 l 521 1215 l 347 1215 l 347 1389 l 694 1389 l 694 1215 l 868 1215 l 868 1042 l 521 1042 z "},"Å":{"ha":1215,"x_min":174,"x_max":1042,"o":"m 347 1042 l 347 1215 l 174 1215 l 174 1389 l 521 1389 l 521 1215 l 694 1215 l 694 1389 l 1042 1389 l 1042 1215 l 868 1215 l 868 1042 l 347 1042 m 174 0 l 174 694 l 347 694 l 347 868 l 868 868 l 868 694 l 1042 694 l 1042 0 l 694 0 l 694 347 l 521 347 l 521 0 l 174 0 m 521 521 l 694 521 l 694 688 l 521 688 l 521 521 z "},"Ã":{"ha":1215,"x_min":174,"x_max":1042,"o":"m 174 0 l 174 694 l 347 694 l 347 868 l 868 868 l 868 694 l 1042 694 l 1042 0 l 694 0 l 694 347 l 521 347 l 521 0 l 174 0 m 521 521 l 694 521 l 694 688 l 521 688 l 521 521 m 174 1042 l 174 1215 l 347 1215 l 347 1389 l 1042 1389 l 1042 1215 l 868 1215 l 868 1042 l 174 1042 z "},"Æ":{"ha":1389,"x_min":174,"x_max":1215,"o":"m 174 0 l 174 694 l 347 694 l 347 868 l 1215 868 l 1215 694 l 868 694 l 868 521 l 1215 521 l 1215 347 l 868 347 l 868 174 l 1215 174 l 1215 0 l 174 0 z "},"B":{"ha":1215,"x_min":174,"x_max":1042,"o":"m 174 0 l 174 868 l 868 868 l 868 694 l 1042 694 l 1042 174 l 868 174 l 868 0 l 174 0 m 521 521 l 688 521 l 688 694 l 521 694 l 521 521 m 521 174 l 688 174 l 688 347 l 521 347 l 521 174 z "},"C":{"ha":1215,"x_min":174,"x_max":1042,"o":"m 347 0 l 347 174 l 174 174 l 174 694 l 347 694 l 347 868 l 868 868 l 868 694 l 1042 694 l 1042 521 l 694 521 l 694 694 l 521 694 l 521 174 l 694 174 l 694 347 l 1042 347 l 1042 174 l 868 174 l 868 0 l 347 0 z "},"Ç":{"ha":1215,"x_min":174,"x_max":1042,"o":"m 347 0 l 347 174 l 174 174 l 174 694 l 347 694 l 347 868 l 868 868 l 868 694 l 1042 694 l 1042 521 l 694 521 l 694 694 l 521 694 l 521 174 l 694 174 l 694 347 l 1042 347 l 1042 174 l 868 174 l 868 0 l 347 0 m 174 -347 l 174 -174 l 347 -174 l 347 0 l 694 0 l 694 -174 l 521 -174 l 521 -347 l 174 -347 z "},"D":{"ha":1215,"x_min":174,"x_max":1042,"o":"m 174 0 l 174 868 l 868 868 l 868 694 l 1042 694 l 1042 174 l 868 174 l 868 0 l 174 0 m 521 174 l 688 174 l 688 694 l 521 694 l 521 174 z "},"Ð":{"ha":1389,"x_min":174,"x_max":1215,"o":"m 347 0 l 347 347 l 174 347 l 174 521 l 347 521 l 347 868 l 1042 868 l 1042 694 l 1215 694 l 1215 174 l 1042 174 l 1042 0 l 347 0 m 694 521 l 868 521 l 868 694 l 694 694 l 694 521 m 694 174 l 868 174 l 868 347 l 694 347 l 694 174 z "},"E":{"ha":1042,"x_min":174,"x_max":868,"o":"m 174 0 l 174 868 l 868 868 l 868 694 l 521 694 l 521 521 l 868 521 l 868 347 l 521 347 l 521 174 l 868 174 l 868 0 l 174 0 z "},"É":{"ha":1042,"x_min":174,"x_max":868,"o":"m 174 0 l 174 868 l 868 868 l 868 694 l 521 694 l 521 521 l 868 521 l 868 347 l 521 347 l 521 174 l 868 174 l 868 0 l 174 0 m 347 1042 l 347 1215 l 521 1215 l 521 1389 l 868 1389 l 868 1215 l 694 1215 l 694 1042 l 347 1042 z "},"Ê":{"ha":1042,"x_min":174,"x_max":868,"o":"m 174 0 l 174 868 l 868 868 l 868 694 l 521 694 l 521 521 l 868 521 l 868 347 l 521 347 l 521 174 l 868 174 l 868 0 l 174 0 m 174 1042 l 174 1215 l 347 1215 l 347 1389 l 694 1389 l 694 1215 l 868 1215 l 868 1042 l 174 1042 z "},"Ë":{"ha":1042,"x_min":174,"x_max":868,"o":"m 174 1042 l 174 1215 l 868 1215 l 868 1042 l 174 1042 m 174 0 l 174 868 l 868 868 l 868 694 l 521 694 l 521 521 l 868 521 l 868 347 l 521 347 l 521 174 l 868 174 l 868 0 l 174 0 z "},"È":{"ha":1042,"x_min":174,"x_max":868,"o":"m 174 0 l 174 868 l 868 868 l 868 694 l 521 694 l 521 521 l 868 521 l 868 347 l 521 347 l 521 174 l 868 174 l 868 0 l 174 0 m 347 1042 l 347 1215 l 174 1215 l 174 1389 l 521 1389 l 521 1215 l 694 1215 l 694 1042 l 347 1042 z "},"F":{"ha":1042,"x_min":174,"x_max":868,"o":"m 174 0 l 174 868 l 868 868 l 868 694 l 521 694 l 521 521 l 868 521 l 868 347 l 521 347 l 521 0 l 174 0 z "},"G":{"ha":1215,"x_min":174,"x_max":1042,"o":"m 347 0 l 347 174 l 174 174 l 174 694 l 347 694 l 347 868 l 1042 868 l 1042 694 l 521 694 l 521 174 l 694 174 l 694 521 l 1042 521 l 1042 174 l 868 174 l 868 0 l 347 0 z "},"H":{"ha":1215,"x_min":174,"x_max":1042,"o":"m 174 0 l 174 868 l 521 868 l 521 521 l 694 521 l 694 868 l 1042 868 l 1042 0 l 694 0 l 694 347 l 521 347 l 521 0 l 174 0 z "},"I":{"ha":694,"x_min":174,"x_max":521,"o":"m 174 0 l 174 868 l 521 868 l 521 0 l 174 0 z "},"Í":{"ha":694,"x_min":174,"x_max":694,"o":"m 174 0 l 174 868 l 521 868 l 521 0 l 174 0 m 174 1042 l 174 1215 l 347 1215 l 347 1389 l 694 1389 l 694 1215 l 521 1215 l 521 1042 l 174 1042 z "},"Î":{"ha":694,"x_min":0,"x_max":694,"o":"m 174 0 l 174 868 l 521 868 l 521 0 l 174 0 m 0 1042 l 0 1215 l 174 1215 l 174 1389 l 521 1389 l 521 1215 l 694 1215 l 694 1042 l 0 1042 z "},"Ï":{"ha":694,"x_min":0,"x_max":694,"o":"m 0 1042 l 0 1215 l 694 1215 l 694 1042 l 0 1042 m 174 0 l 174 868 l 521 868 l 521 0 l 174 0 z "},"Ì":{"ha":694,"x_min":0,"x_max":521,"o":"m 174 0 l 174 868 l 521 868 l 521 0 l 174 0 m 174 1042 l 174 1215 l 0 1215 l 0 1389 l 347 1389 l 347 1215 l 521 1215 l 521 1042 l 174 1042 z "},"J":{"ha":1215,"x_min":174,"x_max":1042,"o":"m 347 0 l 347 174 l 174 174 l 174 347 l 521 347 l 521 174 l 694 174 l 694 868 l 1042 868 l 1042 174 l 868 174 l 868 0 l 347 0 z "},"K":{"ha":1215,"x_min":174,"x_max":1042,"o":"m 174 0 l 174 868 l 521 868 l 521 694 l 694 694 l 694 868 l 1042 868 l 1042 694 l 868 694 l 868 521 l 694 521 l 694 347 l 868 347 l 868 174 l 1042 174 l 1042 0 l 694 0 l 694 174 l 521 174 l 521 0 l 174 0 z "},"L":{"ha":1042,"x_min":174,"x_max":868,"o":"m 174 0 l 174 868 l 521 868 l 521 174 l 868 174 l 868 0 l 174 0 z "},"M":{"ha":1389,"x_min":174,"x_max":1215,"o":"m 174 0 l 174 868 l 521 868 l 521 694 l 868 694 l 868 868 l 1215 868 l 1215 0 l 868 0 l 868 347 l 521 347 l 521 0 l 174 0 z "},"N":{"ha":1389,"x_min":174,"x_max":1215,"o":"m 174 0 l 174 868 l 521 868 l 521 694 l 694 694 l 694 521 l 868 521 l 868 868 l 1215 868 l 1215 0 l 868 0 l 868 174 l 694 174 l 694 347 l 521 347 l 521 0 l 174 0 z "},"Ñ":{"ha":1389,"x_min":174,"x_max":1215,"o":"m 174 0 l 174 868 l 521 868 l 521 694 l 694 694 l 694 521 l 868 521 l 868 868 l 1215 868 l 1215 0 l 868 0 l 868 174 l 694 174 l 694 347 l 521 347 l 521 0 l 174 0 m 347 1042 l 347 1215 l 521 1215 l 521 1389 l 1215 1389 l 1215 1215 l 1042 1215 l 1042 1042 l 347 1042 z "},"O":{"ha":1215,"x_min":174,"x_max":1042,"o":"m 347 0 l 347 174 l 174 174 l 174 694 l 347 694 l 347 868 l 868 868 l 868 694 l 1042 694 l 1042 174 l 868 174 l 868 0 l 347 0 m 521 181 l 694 181 l 694 688 l 521 688 l 521 181 z "},"Ó":{"ha":1215,"x_min":174,"x_max":1042,"o":"m 347 0 l 347 174 l 174 174 l 174 694 l 347 694 l 347 868 l 868 868 l 868 694 l 1042 694 l 1042 174 l 868 174 l 868 0 l 347 0 m 521 181 l 694 181 l 694 688 l 521 688 l 521 181 m 347 1042 l 347 1215 l 521 1215 l 521 1389 l 868 1389 l 868 1215 l 694 1215 l 694 1042 l 347 1042 z "},"Ô":{"ha":1215,"x_min":174,"x_max":1042,"o":"m 174 1042 l 174 1215 l 347 1215 l 347 1389 l 868 1389 l 868 1215 l 1042 1215 l 1042 1042 l 694 1042 l 694 1215 l 521 1215 l 521 1042 l 174 1042 m 347 0 l 347 174 l 174 174 l 174 694 l 347 694 l 347 868 l 868 868 l 868 694 l 1042 694 l 1042 174 l 868 174 l 868 0 l 347 0 m 521 181 l 694 181 l 694 688 l 521 688 l 521 181 z "},"Ö":{"ha":1215,"x_min":174,"x_max":1042,"o":"m 347 0 l 347 174 l 174 174 l 174 694 l 347 694 l 347 868 l 868 868 l 868 694 l 1042 694 l 1042 174 l 868 174 l 868 0 l 347 0 m 521 181 l 694 181 l 694 688 l 521 688 l 521 181 m 694 1042 l 694 1215 l 1042 1215 l 1042 1042 l 694 1042 m 174 1042 l 174 1215 l 521 1215 l 521 1042 l 174 1042 z "},"Ò":{"ha":1215,"x_min":174,"x_max":1042,"o":"m 347 0 l 347 174 l 174 174 l 174 694 l 347 694 l 347 868 l 868 868 l 868 694 l 1042 694 l 1042 174 l 868 174 l 868 0 l 347 0 m 521 181 l 694 181 l 694 688 l 521 688 l 521 181 m 521 1042 l 521 1215 l 347 1215 l 347 1389 l 694 1389 l 694 1215 l 868 1215 l 868 1042 l 521 1042 z "},"Ø":{"ha":1389,"x_min":174,"x_max":1215,"o":"m 347 0 l 347 174 l 174 174 l 174 694 l 347 694 l 347 868 l 1042 868 l 1042 694 l 1215 694 l 1215 174 l 1042 174 l 1042 0 l 347 0 m 521 521 l 694 521 l 694 694 l 521 694 l 521 521 m 694 174 l 868 174 l 868 347 l 694 347 l 694 174 z "},"Õ":{"ha":1215,"x_min":174,"x_max":1042,"o":"m 347 0 l 347 174 l 174 174 l 174 694 l 347 694 l 347 868 l 868 868 l 868 694 l 1042 694 l 1042 174 l 868 174 l 868 0 l 347 0 m 521 181 l 694 181 l 694 688 l 521 688 l 521 181 m 174 1042 l 174 1215 l 347 1215 l 347 1389 l 1042 1389 l 1042 1215 l 868 1215 l 868 1042 l 174 1042 z "},"Œ":{"ha":1389,"x_min":174,"x_max":1215,"o":"m 347 0 l 347 174 l 174 174 l 174 694 l 347 694 l 347 868 l 1215 868 l 1215 694 l 868 694 l 868 521 l 1215 521 l 1215 347 l 868 347 l 868 174 l 1215 174 l 1215 0 l 347 0 z "},"P":{"ha":1215,"x_min":174,"x_max":1042,"o":"m 174 0 l 174 868 l 868 868 l 868 694 l 1042 694 l 1042 521 l 868 521 l 868 347 l 521 347 l 521 0 l 174 0 m 521 521 l 688 521 l 688 694 l 521 694 l 521 521 z "},"Þ":{"ha":1042,"x_min":174,"x_max":868,"o":"m 174 0 l 174 868 l 521 868 l 521 694 l 694 694 l 694 521 l 868 521 l 868 347 l 694 347 l 694 174 l 521 174 l 521 0 l 174 0 z "},"Q":{"ha":1215,"x_min":174,"x_max":1042,"o":"m 694 -174 l 694 0 l 347 0 l 347 174 l 174 174 l 174 694 l 347 694 l 347 868 l 868 868 l 868 694 l 1042 694 l 1042 174 l 868 174 l 868 0 l 1042 0 l 1042 -174 l 694 -174 m 521 174 l 694 174 l 694 694 l 521 694 l 521 174 z "},"R":{"ha":1215,"x_min":174,"x_max":1042,"o":"m 174 0 l 174 868 l 868 868 l 868 694 l 1042 694 l 1042 521 l 868 521 l 868 174 l 1042 174 l 1042 0 l 694 0 l 694 174 l 521 174 l 521 0 l 174 0 m 521 521 l 694 521 l 694 694 l 521 694 l 521 521 z "},"S":{"ha":1215,"x_min":174,"x_max":1042,"o":"m 174 0 l 174 174 l 694 174 l 694 347 l 347 347 l 347 521 l 174 521 l 174 694 l 347 694 l 347 868 l 1042 868 l 1042 694 l 521 694 l 521 521 l 868 521 l 868 347 l 1042 347 l 1042 174 l 868 174 l 868 0 l 174 0 z "},"Š":{"ha":1215,"x_min":174,"x_max":1042,"o":"m 347 1042 l 347 1215 l 174 1215 l 174 1389 l 521 1389 l 521 1215 l 694 1215 l 694 1389 l 1042 1389 l 1042 1215 l 868 1215 l 868 1042 l 347 1042 m 174 0 l 174 174 l 694 174 l 694 347 l 347 347 l 347 521 l 174 521 l 174 694 l 347 694 l 347 868 l 1042 868 l 1042 694 l 521 694 l 521 521 l 868 521 l 868 347 l 1042 347 l 1042 174 l 868 174 l 868 0 l 174 0 z "},"T":{"ha":1042,"x_min":174,"x_max":868,"o":"m 347 0 l 347 694 l 174 694 l 174 868 l 868 868 l 868 694 l 694 694 l 694 0 l 347 0 z "},"U":{"ha":1215,"x_min":174,"x_max":1042,"o":"m 347 0 l 347 174 l 174 174 l 174 868 l 521 868 l 521 174 l 694 174 l 694 868 l 1042 868 l 1042 174 l 868 174 l 868 0 l 347 0 z "},"Ú":{"ha":1215,"x_min":174,"x_max":1042,"o":"m 347 0 l 347 174 l 174 174 l 174 868 l 521 868 l 521 174 l 694 174 l 694 868 l 1042 868 l 1042 174 l 868 174 l 868 0 l 347 0 m 347 1042 l 347 1215 l 521 1215 l 521 1389 l 868 1389 l 868 1215 l 694 1215 l 694 1042 l 347 1042 z "},"Û":{"ha":1215,"x_min":174,"x_max":1042,"o":"m 174 1042 l 174 1215 l 347 1215 l 347 1389 l 868 1389 l 868 1215 l 1042 1215 l 1042 1042 l 694 1042 l 694 1215 l 521 1215 l 521 1042 l 174 1042 m 347 0 l 347 174 l 174 174 l 174 868 l 521 868 l 521 174 l 694 174 l 694 868 l 1042 868 l 1042 174 l 868 174 l 868 0 l 347 0 z "},"Ü":{"ha":1215,"x_min":174,"x_max":1042,"o":"m 347 0 l 347 174 l 174 174 l 174 868 l 521 868 l 521 174 l 694 174 l 694 868 l 1042 868 l 1042 174 l 868 174 l 868 0 l 347 0 m 694 1042 l 694 1215 l 1042 1215 l 1042 1042 l 694 1042 m 174 1042 l 174 1215 l 521 1215 l 521 1042 l 174 1042 z "},"Ù":{"ha":1215,"x_min":174,"x_max":1042,"o":"m 347 0 l 347 174 l 174 174 l 174 868 l 521 868 l 521 174 l 694 174 l 694 868 l 1042 868 l 1042 174 l 868 174 l 868 0 l 347 0 m 521 1042 l 521 1215 l 347 1215 l 347 1389 l 694 1389 l 694 1215 l 868 1215 l 868 1042 l 521 1042 z "},"V":{"ha":1389,"x_min":174,"x_max":1215,"o":"m 521 0 l 521 174 l 347 174 l 347 521 l 174 521 l 174 868 l 521 868 l 521 521 l 868 521 l 868 868 l 1215 868 l 1215 521 l 1042 521 l 1042 174 l 868 174 l 868 0 l 521 0 z "},"W":{"ha":1389,"x_min":174,"x_max":1215,"o":"m 347 0 l 347 174 l 174 174 l 174 868 l 521 868 l 521 694 l 868 694 l 868 868 l 1215 868 l 1215 174 l 1042 174 l 1042 0 l 347 0 z "},"X":{"ha":1389,"x_min":174,"x_max":1215,"o":"m 174 0 l 174 174 l 347 174 l 347 347 l 521 347 l 521 521 l 347 521 l 347 694 l 174 694 l 174 868 l 521 868 l 521 694 l 868 694 l 868 868 l 1215 868 l 1215 694 l 1042 694 l 1042 521 l 868 521 l 868 347 l 1042 347 l 1042 174 l 1215 174 l 1215 0 l 868 0 l 868 174 l 521 174 l 521 0 l 174 0 z "},"Y":{"ha":1389,"x_min":174,"x_max":1215,"o":"m 521 0 l 521 521 l 347 521 l 347 694 l 174 694 l 174 868 l 521 868 l 521 694 l 868 694 l 868 868 l 1215 868 l 1215 694 l 1042 694 l 1042 521 l 868 521 l 868 0 l 521 0 z "},"Ý":{"ha":1389,"x_min":174,"x_max":1215,"o":"m 521 0 l 521 521 l 347 521 l 347 694 l 174 694 l 174 868 l 521 868 l 521 694 l 868 694 l 868 868 l 1215 868 l 1215 694 l 1042 694 l 1042 521 l 868 521 l 868 0 l 521 0 m 521 1042 l 521 1215 l 694 1215 l 694 1389 l 1042 1389 l 1042 1215 l 868 1215 l 868 1042 l 521 1042 z "},"Ÿ":{"ha":1389,"x_min":174,"x_max":1215,"o":"m 347 1042 l 347 1215 l 1042 1215 l 1042 1042 l 347 1042 m 521 0 l 521 521 l 347 521 l 347 694 l 174 694 l 174 868 l 521 868 l 521 694 l 868 694 l 868 868 l 1215 868 l 1215 694 l 1042 694 l 1042 521 l 868 521 l 868 0 l 521 0 z "},"Z":{"ha":1042,"x_min":174,"x_max":868,"o":"m 174 0 l 174 347 l 347 347 l 347 521 l 521 521 l 521 694 l 174 694 l 174 868 l 868 868 l 868 521 l 694 521 l 694 347 l 521 347 l 521 174 l 868 174 l 868 0 l 174 0 z "},"Ž":{"ha":1042,"x_min":174,"x_max":868,"o":"m 347 1042 l 347 1215 l 174 1215 l 174 1389 l 868 1389 l 868 1215 l 694 1215 l 694 1042 l 347 1042 m 174 0 l 174 347 l 347 347 l 347 521 l 521 521 l 521 694 l 174 694 l 174 868 l 868 868 l 868 521 l 694 521 l 694 347 l 521 347 l 521 174 l 868 174 l 868 0 l 174 0 z "},"a":{"ha":1215,"x_min":174,"x_max":1042,"o":"m 174 0 l 174 694 l 347 694 l 347 868 l 868 868 l 868 694 l 1042 694 l 1042 0 l 694 0 l 694 347 l 521 347 l 521 0 l 174 0 m 521 521 l 694 521 l 694 688 l 521 688 l 521 521 z "},"á":{"ha":1215,"x_min":174,"x_max":1042,"o":"m 174 0 l 174 694 l 347 694 l 347 868 l 868 868 l 868 694 l 1042 694 l 1042 0 l 694 0 l 694 347 l 521 347 l 521 0 l 174 0 m 521 521 l 694 521 l 694 688 l 521 688 l 521 521 m 347 1042 l 347 1215 l 521 1215 l 521 1389 l 868 1389 l 868 1215 l 694 1215 l 694 1042 l 347 1042 z "},"â":{"ha":1215,"x_min":174,"x_max":1042,"o":"m 174 1042 l 174 1215 l 347 1215 l 347 1389 l 868 1389 l 868 1215 l 1042 1215 l 1042 1042 l 694 1042 l 694 1215 l 521 1215 l 521 1042 l 174 1042 m 174 0 l 174 694 l 347 694 l 347 868 l 868 868 l 868 694 l 1042 694 l 1042 0 l 694 0 l 694 347 l 521 347 l 521 0 l 174 0 m 521 521 l 694 521 l 694 688 l 521 688 l 521 521 z "},"ä":{"ha":1215,"x_min":174,"x_max":1042,"o":"m 174 0 l 174 694 l 347 694 l 347 868 l 868 868 l 868 694 l 1042 694 l 1042 0 l 694 0 l 694 347 l 521 347 l 521 0 l 174 0 m 521 521 l 694 521 l 694 688 l 521 688 l 521 521 m 694 1042 l 694 1215 l 1042 1215 l 1042 1042 l 694 1042 m 174 1042 l 174 1215 l 521 1215 l 521 1042 l 174 1042 z "},"à":{"ha":1215,"x_min":174,"x_max":1042,"o":"m 174 0 l 174 694 l 347 694 l 347 868 l 868 868 l 868 694 l 1042 694 l 1042 0 l 694 0 l 694 347 l 521 347 l 521 0 l 174 0 m 521 521 l 694 521 l 694 688 l 521 688 l 521 521 m 521 1042 l 521 1215 l 347 1215 l 347 1389 l 694 1389 l 694 1215 l 868 1215 l 868 1042 l 521 1042 z "},"å":{"ha":1215,"x_min":174,"x_max":1042,"o":"m 347 1042 l 347 1215 l 174 1215 l 174 1389 l 521 1389 l 521 1215 l 694 1215 l 694 1389 l 1042 1389 l 1042 1215 l 868 1215 l 868 1042 l 347 1042 m 174 0 l 174 694 l 347 694 l 347 868 l 868 868 l 868 694 l 1042 694 l 1042 0 l 694 0 l 694 347 l 521 347 l 521 0 l 174 0 m 521 521 l 694 521 l 694 688 l 521 688 l 521 521 z "},"ã":{"ha":1215,"x_min":174,"x_max":1042,"o":"m 174 0 l 174 694 l 347 694 l 347 868 l 868 868 l 868 694 l 1042 694 l 1042 0 l 694 0 l 694 347 l 521 347 l 521 0 l 174 0 m 521 521 l 694 521 l 694 688 l 521 688 l 521 521 m 174 1042 l 174 1215 l 347 1215 l 347 1389 l 1042 1389 l 1042 1215 l 868 1215 l 868 1042 l 174 1042 z "},"æ":{"ha":1389,"x_min":174,"x_max":1215,"o":"m 174 0 l 174 694 l 347 694 l 347 868 l 1215 868 l 1215 694 l 868 694 l 868 521 l 1215 521 l 1215 347 l 868 347 l 868 174 l 1215 174 l 1215 0 l 174 0 z "},"b":{"ha":1215,"x_min":174,"x_max":1042,"o":"m 174 0 l 174 868 l 868 868 l 868 694 l 1042 694 l 1042 174 l 868 174 l 868 0 l 174 0 m 521 521 l 688 521 l 688 694 l 521 694 l 521 521 m 521 174 l 688 174 l 688 347 l 521 347 l 521 174 z "},"c":{"ha":1215,"x_min":174,"x_max":1042,"o":"m 347 0 l 347 174 l 174 174 l 174 694 l 347 694 l 347 868 l 868 868 l 868 694 l 1042 694 l 1042 521 l 694 521 l 694 694 l 521 694 l 521 174 l 694 174 l 694 347 l 1042 347 l 1042 174 l 868 174 l 868 0 l 347 0 z "},"ç":{"ha":1215,"x_min":174,"x_max":1042,"o":"m 347 0 l 347 174 l 174 174 l 174 694 l 347 694 l 347 868 l 868 868 l 868 694 l 1042 694 l 1042 521 l 694 521 l 694 694 l 521 694 l 521 174 l 694 174 l 694 347 l 1042 347 l 1042 174 l 868 174 l 868 0 l 347 0 m 174 -347 l 174 -174 l 347 -174 l 347 0 l 694 0 l 694 -174 l 521 -174 l 521 -347 l 174 -347 z "},"d":{"ha":1215,"x_min":174,"x_max":1042,"o":"m 174 0 l 174 868 l 868 868 l 868 694 l 1042 694 l 1042 174 l 868 174 l 868 0 l 174 0 m 521 174 l 688 174 l 688 694 l 521 694 l 521 174 z "},"ð":{"ha":1389,"x_min":174,"x_max":1215,"o":"m 347 0 l 347 347 l 174 347 l 174 521 l 347 521 l 347 868 l 1042 868 l 1042 694 l 1215 694 l 1215 174 l 1042 174 l 1042 0 l 347 0 m 694 521 l 868 521 l 868 694 l 694 694 l 694 521 m 694 174 l 868 174 l 868 347 l 694 347 l 694 174 z "},"e":{"ha":1042,"x_min":174,"x_max":868,"o":"m 174 0 l 174 868 l 868 868 l 868 694 l 521 694 l 521 521 l 868 521 l 868 347 l 521 347 l 521 174 l 868 174 l 868 0 l 174 0 z "},"é":{"ha":1042,"x_min":174,"x_max":868,"o":"m 174 0 l 174 868 l 868 868 l 868 694 l 521 694 l 521 521 l 868 521 l 868 347 l 521 347 l 521 174 l 868 174 l 868 0 l 174 0 m 347 1042 l 347 1215 l 521 1215 l 521 1389 l 868 1389 l 868 1215 l 694 1215 l 694 1042 l 347 1042 z "},"ê":{"ha":1042,"x_min":174,"x_max":868,"o":"m 174 0 l 174 868 l 868 868 l 868 694 l 521 694 l 521 521 l 868 521 l 868 347 l 521 347 l 521 174 l 868 174 l 868 0 l 174 0 m 174 1042 l 174 1215 l 347 1215 l 347 1389 l 694 1389 l 694 1215 l 868 1215 l 868 1042 l 174 1042 z "},"ë":{"ha":1042,"x_min":174,"x_max":868,"o":"m 174 1042 l 174 1215 l 868 1215 l 868 1042 l 174 1042 m 174 0 l 174 868 l 868 868 l 868 694 l 521 694 l 521 521 l 868 521 l 868 347 l 521 347 l 521 174 l 868 174 l 868 0 l 174 0 z "},"è":{"ha":1042,"x_min":174,"x_max":868,"o":"m 174 0 l 174 868 l 868 868 l 868 694 l 521 694 l 521 521 l 868 521 l 868 347 l 521 347 l 521 174 l 868 174 l 868 0 l 174 0 m 347 1042 l 347 1215 l 174 1215 l 174 1389 l 521 1389 l 521 1215 l 694 1215 l 694 1042 l 347 1042 z "},"f":{"ha":1042,"x_min":174,"x_max":868,"o":"m 174 0 l 174 868 l 868 868 l 868 694 l 521 694 l 521 521 l 868 521 l 868 347 l 521 347 l 521 0 l 174 0 z "},"g":{"ha":1215,"x_min":174,"x_max":1042,"o":"m 347 0 l 347 174 l 174 174 l 174 694 l 347 694 l 347 868 l 1042 868 l 1042 694 l 521 694 l 521 174 l 694 174 l 694 521 l 1042 521 l 1042 174 l 868 174 l 868 0 l 347 0 z "},"h":{"ha":1215,"x_min":174,"x_max":1042,"o":"m 174 0 l 174 868 l 521 868 l 521 521 l 694 521 l 694 868 l 1042 868 l 1042 0 l 694 0 l 694 347 l 521 347 l 521 0 l 174 0 z "},"i":{"ha":694,"x_min":174,"x_max":521,"o":"m 174 0 l 174 868 l 521 868 l 521 0 l 174 0 z "},"í":{"ha":694,"x_min":174,"x_max":694,"o":"m 174 1042 l 174 1215 l 347 1215 l 347 1389 l 694 1389 l 694 1215 l 521 1215 l 521 1042 l 174 1042 m 174 0 l 174 868 l 521 868 l 521 0 l 174 0 z "},"î":{"ha":694,"x_min":0,"x_max":694,"o":"m 0 1042 l 0 1215 l 174 1215 l 174 1389 l 521 1389 l 521 1215 l 694 1215 l 694 1042 l 0 1042 m 174 0 l 174 868 l 521 868 l 521 0 l 174 0 z "},"ï":{"ha":694,"x_min":0,"x_max":694,"o":"m 0 1042 l 0 1215 l 694 1215 l 694 1042 l 0 1042 m 174 0 l 174 868 l 521 868 l 521 0 l 174 0 z "},"ì":{"ha":694,"x_min":0,"x_max":521,"o":"m 174 1042 l 174 1215 l 0 1215 l 0 1389 l 347 1389 l 347 1215 l 521 1215 l 521 1042 l 174 1042 m 174 0 l 174 868 l 521 868 l 521 0 l 174 0 z "},"j":{"ha":1215,"x_min":174,"x_max":1042,"o":"m 347 0 l 347 174 l 174 174 l 174 347 l 521 347 l 521 174 l 694 174 l 694 868 l 1042 868 l 1042 174 l 868 174 l 868 0 l 347 0 z "},"k":{"ha":1215,"x_min":174,"x_max":1042,"o":"m 174 0 l 174 868 l 521 868 l 521 694 l 694 694 l 694 868 l 1042 868 l 1042 694 l 868 694 l 868 521 l 694 521 l 694 347 l 868 347 l 868 174 l 1042 174 l 1042 0 l 694 0 l 694 174 l 521 174 l 521 0 l 174 0 z "},"l":{"ha":1042,"x_min":174,"x_max":868,"o":"m 174 0 l 174 868 l 521 868 l 521 174 l 868 174 l 868 0 l 174 0 z "},"m":{"ha":1389,"x_min":174,"x_max":1215,"o":"m 174 0 l 174 868 l 521 868 l 521 694 l 868 694 l 868 868 l 1215 868 l 1215 0 l 868 0 l 868 347 l 521 347 l 521 0 l 174 0 z "},"n":{"ha":1389,"x_min":174,"x_max":1215,"o":"m 174 0 l 174 868 l 521 868 l 521 694 l 694 694 l 694 521 l 868 521 l 868 868 l 1215 868 l 1215 0 l 868 0 l 868 174 l 694 174 l 694 347 l 521 347 l 521 0 l 174 0 z "},"ñ":{"ha":1389,"x_min":174,"x_max":1215,"o":"m 174 0 l 174 868 l 521 868 l 521 694 l 694 694 l 694 521 l 868 521 l 868 868 l 1215 868 l 1215 0 l 868 0 l 868 174 l 694 174 l 694 347 l 521 347 l 521 0 l 174 0 m 347 1042 l 347 1215 l 521 1215 l 521 1389 l 1215 1389 l 1215 1215 l 1042 1215 l 1042 1042 l 347 1042 z "},"o":{"ha":1215,"x_min":174,"x_max":1042,"o":"m 347 0 l 347 174 l 174 174 l 174 694 l 347 694 l 347 868 l 868 868 l 868 694 l 1042 694 l 1042 174 l 868 174 l 868 0 l 347 0 m 521 181 l 694 181 l 694 688 l 521 688 l 521 181 z "},"ó":{"ha":1215,"x_min":174,"x_max":1042,"o":"m 347 0 l 347 174 l 174 174 l 174 694 l 347 694 l 347 868 l 868 868 l 868 694 l 1042 694 l 1042 174 l 868 174 l 868 0 l 347 0 m 521 181 l 694 181 l 694 688 l 521 688 l 521 181 m 347 1042 l 347 1215 l 521 1215 l 521 1389 l 868 1389 l 868 1215 l 694 1215 l 694 1042 l 347 1042 z "},"ô":{"ha":1215,"x_min":174,"x_max":1042,"o":"m 174 1042 l 174 1215 l 347 1215 l 347 1389 l 868 1389 l 868 1215 l 1042 1215 l 1042 1042 l 694 1042 l 694 1215 l 521 1215 l 521 1042 l 174 1042 m 347 0 l 347 174 l 174 174 l 174 694 l 347 694 l 347 868 l 868 868 l 868 694 l 1042 694 l 1042 174 l 868 174 l 868 0 l 347 0 m 521 181 l 694 181 l 694 688 l 521 688 l 521 181 z "},"ö":{"ha":1215,"x_min":174,"x_max":1042,"o":"m 347 0 l 347 174 l 174 174 l 174 694 l 347 694 l 347 868 l 868 868 l 868 694 l 1042 694 l 1042 174 l 868 174 l 868 0 l 347 0 m 521 181 l 694 181 l 694 688 l 521 688 l 521 181 m 694 1042 l 694 1215 l 1042 1215 l 1042 1042 l 694 1042 m 174 1042 l 174 1215 l 521 1215 l 521 1042 l 174 1042 z "},"ò":{"ha":1215,"x_min":174,"x_max":1042,"o":"m 347 0 l 347 174 l 174 174 l 174 694 l 347 694 l 347 868 l 868 868 l 868 694 l 1042 694 l 1042 174 l 868 174 l 868 0 l 347 0 m 521 181 l 694 181 l 694 688 l 521 688 l 521 181 m 521 1042 l 521 1215 l 347 1215 l 347 1389 l 694 1389 l 694 1215 l 868 1215 l 868 1042 l 521 1042 z "},"ø":{"ha":1389,"x_min":174,"x_max":1215,"o":"m 347 0 l 347 174 l 174 174 l 174 694 l 347 694 l 347 868 l 1042 868 l 1042 694 l 1215 694 l 1215 174 l 1042 174 l 1042 0 l 347 0 m 521 521 l 694 521 l 694 694 l 521 694 l 521 521 m 694 174 l 868 174 l 868 347 l 694 347 l 694 174 z "},"õ":{"ha":1215,"x_min":174,"x_max":1042,"o":"m 347 0 l 347 174 l 174 174 l 174 694 l 347 694 l 347 868 l 868 868 l 868 694 l 1042 694 l 1042 174 l 868 174 l 868 0 l 347 0 m 521 181 l 694 181 l 694 688 l 521 688 l 521 181 m 174 1042 l 174 1215 l 347 1215 l 347 1389 l 1042 1389 l 1042 1215 l 868 1215 l 868 1042 l 174 1042 z "},"œ":{"ha":1389,"x_min":174,"x_max":1215,"o":"m 347 0 l 347 174 l 174 174 l 174 694 l 347 694 l 347 868 l 1215 868 l 1215 694 l 868 694 l 868 521 l 1215 521 l 1215 347 l 868 347 l 868 174 l 1215 174 l 1215 0 l 347 0 z "},"p":{"ha":1215,"x_min":174,"x_max":1042,"o":"m 174 0 l 174 868 l 868 868 l 868 694 l 1042 694 l 1042 521 l 868 521 l 868 347 l 521 347 l 521 0 l 174 0 m 521 521 l 688 521 l 688 694 l 521 694 l 521 521 z "},"þ":{"ha":1042,"x_min":174,"x_max":868,"o":"m 174 0 l 174 868 l 521 868 l 521 694 l 694 694 l 694 521 l 868 521 l 868 347 l 694 347 l 694 174 l 521 174 l 521 0 l 174 0 z "},"q":{"ha":1215,"x_min":174,"x_max":1042,"o":"m 694 -174 l 694 0 l 347 0 l 347 174 l 174 174 l 174 694 l 347 694 l 347 868 l 868 868 l 868 694 l 1042 694 l 1042 174 l 868 174 l 868 0 l 1042 0 l 1042 -174 l 694 -174 m 521 174 l 694 174 l 694 694 l 521 694 l 521 174 z "},"r":{"ha":1215,"x_min":174,"x_max":1042,"o":"m 174 0 l 174 868 l 868 868 l 868 694 l 1042 694 l 1042 521 l 868 521 l 868 174 l 1042 174 l 1042 0 l 694 0 l 694 174 l 521 174 l 521 0 l 174 0 m 521 521 l 694 521 l 694 694 l 521 694 l 521 521 z "},"s":{"ha":1215,"x_min":174,"x_max":1042,"o":"m 174 0 l 174 174 l 694 174 l 694 347 l 347 347 l 347 521 l 174 521 l 174 694 l 347 694 l 347 868 l 1042 868 l 1042 694 l 521 694 l 521 521 l 868 521 l 868 347 l 1042 347 l 1042 174 l 868 174 l 868 0 l 174 0 z "},"š":{"ha":1215,"x_min":174,"x_max":1042,"o":"m 347 1042 l 347 1215 l 174 1215 l 174 1389 l 521 1389 l 521 1215 l 694 1215 l 694 1389 l 1042 1389 l 1042 1215 l 868 1215 l 868 1042 l 347 1042 m 174 0 l 174 174 l 694 174 l 694 347 l 347 347 l 347 521 l 174 521 l 174 694 l 347 694 l 347 868 l 1042 868 l 1042 694 l 521 694 l 521 521 l 868 521 l 868 347 l 1042 347 l 1042 174 l 868 174 l 868 0 l 174 0 z "},"ß":{"ha":1215,"x_min":174,"x_max":1042,"o":"m 174 0 l 174 694 l 347 694 l 347 868 l 868 868 l 868 694 l 1042 694 l 1042 521 l 868 521 l 868 347 l 1042 347 l 1042 174 l 868 174 l 868 0 l 174 0 m 521 521 l 694 521 l 694 694 l 521 694 l 521 521 m 521 174 l 694 174 l 694 347 l 521 347 l 521 174 z "},"t":{"ha":1042,"x_min":174,"x_max":868,"o":"m 347 0 l 347 694 l 174 694 l 174 868 l 868 868 l 868 694 l 694 694 l 694 0 l 347 0 z "},"u":{"ha":1215,"x_min":174,"x_max":1042,"o":"m 347 0 l 347 174 l 174 174 l 174 868 l 521 868 l 521 174 l 694 174 l 694 868 l 1042 868 l 1042 174 l 868 174 l 868 0 l 347 0 z "},"ú":{"ha":1215,"x_min":174,"x_max":1042,"o":"m 347 0 l 347 174 l 174 174 l 174 868 l 521 868 l 521 174 l 694 174 l 694 868 l 1042 868 l 1042 174 l 868 174 l 868 0 l 347 0 m 347 1042 l 347 1215 l 521 1215 l 521 1389 l 868 1389 l 868 1215 l 694 1215 l 694 1042 l 347 1042 z "},"û":{"ha":1215,"x_min":174,"x_max":1042,"o":"m 174 1042 l 174 1215 l 347 1215 l 347 1389 l 868 1389 l 868 1215 l 1042 1215 l 1042 1042 l 694 1042 l 694 1215 l 521 1215 l 521 1042 l 174 1042 m 347 0 l 347 174 l 174 174 l 174 868 l 521 868 l 521 174 l 694 174 l 694 868 l 1042 868 l 1042 174 l 868 174 l 868 0 l 347 0 z "},"ü":{"ha":1215,"x_min":174,"x_max":1042,"o":"m 347 0 l 347 174 l 174 174 l 174 868 l 521 868 l 521 174 l 694 174 l 694 868 l 1042 868 l 1042 174 l 868 174 l 868 0 l 347 0 m 694 1042 l 694 1215 l 1042 1215 l 1042 1042 l 694 1042 m 174 1042 l 174 1215 l 521 1215 l 521 1042 l 174 1042 z "},"ù":{"ha":1215,"x_min":174,"x_max":1042,"o":"m 347 0 l 347 174 l 174 174 l 174 868 l 521 868 l 521 174 l 694 174 l 694 868 l 1042 868 l 1042 174 l 868 174 l 868 0 l 347 0 m 521 1042 l 521 1215 l 347 1215 l 347 1389 l 694 1389 l 694 1215 l 868 1215 l 868 1042 l 521 1042 z "},"v":{"ha":1389,"x_min":174,"x_max":1215,"o":"m 521 0 l 521 174 l 347 174 l 347 521 l 174 521 l 174 868 l 521 868 l 521 521 l 868 521 l 868 868 l 1215 868 l 1215 521 l 1042 521 l 1042 174 l 868 174 l 868 0 l 521 0 z "},"w":{"ha":1389,"x_min":174,"x_max":1215,"o":"m 347 0 l 347 174 l 174 174 l 174 868 l 521 868 l 521 694 l 868 694 l 868 868 l 1215 868 l 1215 174 l 1042 174 l 1042 0 l 347 0 z "},"x":{"ha":1389,"x_min":174,"x_max":1215,"o":"m 174 0 l 174 174 l 347 174 l 347 347 l 521 347 l 521 521 l 347 521 l 347 694 l 174 694 l 174 868 l 521 868 l 521 694 l 868 694 l 868 868 l 1215 868 l 1215 694 l 1042 694 l 1042 521 l 868 521 l 868 347 l 1042 347 l 1042 174 l 1215 174 l 1215 0 l 868 0 l 868 174 l 521 174 l 521 0 l 174 0 z "},"y":{"ha":1389,"x_min":174,"x_max":1215,"o":"m 521 0 l 521 521 l 347 521 l 347 694 l 174 694 l 174 868 l 521 868 l 521 694 l 868 694 l 868 868 l 1215 868 l 1215 694 l 1042 694 l 1042 521 l 868 521 l 868 0 l 521 0 z "},"ý":{"ha":1389,"x_min":174,"x_max":1215,"o":"m 521 0 l 521 521 l 347 521 l 347 694 l 174 694 l 174 868 l 521 868 l 521 694 l 868 694 l 868 868 l 1215 868 l 1215 694 l 1042 694 l 1042 521 l 868 521 l 868 0 l 521 0 m 522 1042 l 522 1215 l 696 1215 l 696 1389 l 1043 1389 l 1043 1215 l 869 1215 l 869 1042 l 522 1042 z "},"ÿ":{"ha":1389,"x_min":174,"x_max":1215,"o":"m 347 1042 l 347 1215 l 1042 1215 l 1042 1042 l 347 1042 m 521 0 l 521 521 l 347 521 l 347 694 l 174 694 l 174 868 l 521 868 l 521 694 l 868 694 l 868 868 l 1215 868 l 1215 694 l 1042 694 l 1042 521 l 868 521 l 868 0 l 521 0 z "},"z":{"ha":1042,"x_min":174,"x_max":868,"o":"m 174 0 l 174 347 l 347 347 l 347 521 l 521 521 l 521 694 l 174 694 l 174 868 l 868 868 l 868 521 l 694 521 l 694 347 l 521 347 l 521 174 l 868 174 l 868 0 l 174 0 z "},"ž":{"ha":1042,"x_min":174,"x_max":868,"o":"m 347 1042 l 347 1215 l 174 1215 l 174 1389 l 868 1389 l 868 1215 l 694 1215 l 694 1042 l 347 1042 m 174 0 l 174 347 l 347 347 l 347 521 l 521 521 l 521 694 l 174 694 l 174 868 l 868 868 l 868 521 l 694 521 l 694 347 l 521 347 l 521 174 l 868 174 l 868 0 l 174 0 z "},"ª":{"ha":1042,"x_min":174,"x_max":868,"o":"m 347 347 l 347 521 l 174 521 l 174 694 l 347 694 l 347 868 l 694 868 l 694 694 l 868 694 l 868 347 l 347 347 z "},"º":{"ha":1042,"x_min":174,"x_max":868,"o":"m 347 347 l 347 521 l 174 521 l 174 694 l 347 694 l 347 868 l 694 868 l 694 694 l 868 694 l 868 521 l 694 521 l 694 347 l 347 347 z "},"¹":{"ha":868,"x_min":174,"x_max":694,"o":"m 347 174 l 347 694 l 174 694 l 174 868 l 694 868 l 694 174 l 347 174 z "},"²":{"ha":1042,"x_min":174,"x_max":868,"o":"m 174 174 l 174 347 l 347 347 l 347 521 l 521 521 l 521 694 l 174 694 l 174 868 l 694 868 l 694 694 l 868 694 l 868 521 l 694 521 l 694 347 l 868 347 l 868 174 l 174 174 z "},"³":{"ha":1042,"x_min":174,"x_max":868,"o":"m 174 174 l 174 347 l 521 347 l 521 521 l 347 521 l 347 694 l 174 694 l 174 868 l 694 868 l 694 694 l 868 694 l 868 174 l 174 174 z "},"½":{"ha":1736,"x_min":174,"x_max":1563,"o":"m 347 0 l 347 347 l 174 347 l 174 868 l 521 868 l 521 521 l 694 521 l 694 868 l 1042 868 l 1042 694 l 1389 694 l 1389 521 l 1563 521 l 1563 347 l 1389 347 l 1389 174 l 1563 174 l 1563 0 l 868 0 l 868 174 l 1042 174 l 1042 347 l 1215 347 l 1215 521 l 868 521 l 868 347 l 694 347 l 694 0 l 347 0 z "},"¼":{"ha":1736,"x_min":174,"x_max":1563,"o":"m 347 0 l 347 347 l 174 347 l 174 868 l 521 868 l 521 521 l 694 521 l 694 868 l 1042 868 l 1042 521 l 1563 521 l 1563 0 l 1215 0 l 1215 174 l 868 174 l 868 347 l 694 347 l 694 0 l 347 0 z "},"¾":{"ha":1910,"x_min":174,"x_max":1736,"o":"m 521 0 l 521 174 l 174 174 l 174 347 l 521 347 l 521 521 l 347 521 l 347 694 l 174 694 l 174 868 l 694 868 l 694 694 l 868 694 l 868 868 l 1215 868 l 1215 521 l 1736 521 l 1736 0 l 1389 0 l 1389 174 l 1042 174 l 1042 347 l 868 347 l 868 0 l 521 0 z "},"\r":{"ha":694,"x_min":0,"x_max":0,"o":""}," ":{"ha":694,"x_min":0,"x_max":0,"o":""}," ":{"ha":694,"x_min":0,"x_max":0,"o":""},".":{"ha":694,"x_min":174,"x_max":521,"o":"m 174 0 l 174 174 l 521 174 l 521 0 l 174 0 z "},",":{"ha":868,"x_min":174,"x_max":694,"o":"m 174 -174 l 174 0 l 347 0 l 347 174 l 694 174 l 694 0 l 521 0 l 521 -174 l 174 -174 z "},":":{"ha":694,"x_min":174,"x_max":521,"o":"m 174 521 l 174 694 l 521 694 l 521 521 l 174 521 m 174 174 l 174 347 l 521 347 l 521 174 l 174 174 z "},";":{"ha":868,"x_min":174,"x_max":694,"o":"m 347 521 l 347 694 l 694 694 l 694 521 l 347 521 m 174 0 l 174 174 l 347 174 l 347 347 l 694 347 l 694 174 l 521 174 l 521 0 l 174 0 z "},"…":{"ha":1389,"x_min":174,"x_max":1215,"o":"m 174 0 l 174 174 l 1215 174 l 1215 0 l 174 0 z "},"!":{"ha":694,"x_min":174,"x_max":521,"o":"m 174 347 l 174 868 l 521 868 l 521 347 l 174 347 m 174 0 l 174 174 l 521 174 l 521 0 l 174 0 z "},"¡":{"ha":694,"x_min":174,"x_max":521,"o":"m 174 694 l 174 868 l 521 868 l 521 694 l 174 694 m 174 0 l 174 521 l 521 521 l 521 0 l 174 0 z "},"?":{"ha":1215,"x_min":174,"x_max":1042,"o":"m 347 347 l 347 521 l 694 521 l 694 694 l 174 694 l 174 868 l 868 868 l 868 694 l 1042 694 l 1042 521 l 868 521 l 868 347 l 347 347 m 347 0 l 347 174 l 694 174 l 694 0 l 347 0 z "},"¿":{"ha":1215,"x_min":174,"x_max":1042,"o":"m 521 694 l 521 868 l 868 868 l 868 694 l 521 694 m 347 0 l 347 174 l 174 174 l 174 347 l 347 347 l 347 521 l 868 521 l 868 347 l 521 347 l 521 174 l 1042 174 l 1042 0 l 347 0 z "},"·":{"ha":694,"x_min":174,"x_max":521,"o":"m 174 347 l 174 521 l 521 521 l 521 347 l 174 347 z "},"•":{"ha":694,"x_min":174,"x_max":521,"o":"m 174 347 l 174 521 l 521 521 l 521 347 l 174 347 z "},"*":{"ha":1389,"x_min":174,"x_max":1215,"o":"m 521 0 l 521 174 l 174 174 l 174 347 l 347 347 l 347 521 l 174 521 l 174 694 l 521 694 l 521 868 l 868 868 l 868 694 l 1215 694 l 1215 521 l 1042 521 l 1042 347 l 1215 347 l 1215 174 l 868 174 l 868 0 l 521 0 z "},"#":{"ha":1389,"x_min":174,"x_max":1215,"o":"m 347 0 l 347 174 l 178 174 l 174 347 l 347 347 l 347 521 l 174 521 l 174 694 l 347 694 l 347 868 l 1042 868 l 1042 694 l 1215 694 l 1215 521 l 1042 521 l 1042 347 l 1215 347 l 1215 174 l 1042 174 l 1042 0 l 347 0 z "},"/":{"ha":1042,"x_min":174,"x_max":868,"o":"m 174 0 l 174 347 l 347 347 l 347 521 l 521 521 l 521 868 l 868 868 l 868 521 l 694 521 l 694 347 l 521 347 l 521 0 l 174 0 z "},"\\":{"ha":1042,"x_min":174,"x_max":868,"o":"m 521 0 l 521 347 l 347 347 l 347 521 l 174 521 l 174 868 l 521 868 l 521 521 l 694 521 l 694 347 l 868 347 l 868 0 l 521 0 z "},"-":{"ha":1042,"x_min":174,"x_max":868,"o":"m 174 347 l 174 521 l 868 521 l 868 347 l 174 347 z "},"­":{"ha":0,"x_min":-347,"x_max":347,"o":"m -347 347 l -347 521 l 347 521 l 347 347 l -347 347 z "},"–":{"ha":1215,"x_min":174,"x_max":1042,"o":"m 174 347 l 174 521 l 1042 521 l 1042 347 l 174 347 z "},"—":{"ha":1563,"x_min":174,"x_max":1389,"o":"m 174 347 l 174 521 l 1389 521 l 1389 347 l 174 347 z "},"_":{"ha":1215,"x_min":174,"x_max":1042,"o":"m 174 -174 l 174 0 l 1042 0 l 1042 -174 l 174 -174 z "},"(":{"ha":868,"x_min":174,"x_max":694,"o":"m 347 0 l 347 174 l 174 174 l 174 694 l 347 694 l 347 868 l 694 868 l 694 694 l 521 694 l 521 174 l 694 174 l 694 0 l 347 0 z "},")":{"ha":868,"x_min":174,"x_max":694,"o":"m 174 0 l 174 174 l 347 174 l 347 694 l 174 694 l 174 868 l 521 868 l 521 694 l 694 694 l 694 174 l 521 174 l 521 0 l 174 0 z "},"{":{"ha":1042,"x_min":174,"x_max":868,"o":"m 347 0 l 347 347 l 174 347 l 174 521 l 347 521 l 347 868 l 868 868 l 868 694 l 694 694 l 694 521 l 521 521 l 521 347 l 694 347 l 694 174 l 868 174 l 868 0 l 347 0 z "},"}":{"ha":1042,"x_min":174,"x_max":868,"o":"m 174 0 l 174 174 l 347 174 l 347 347 l 521 347 l 521 521 l 347 521 l 347 694 l 174 694 l 174 868 l 694 868 l 694 521 l 868 521 l 868 347 l 694 347 l 694 0 l 174 0 z "},"[":{"ha":868,"x_min":174,"x_max":694,"o":"m 174 0 l 174 868 l 694 868 l 694 694 l 521 694 l 521 174 l 694 174 l 694 0 l 174 0 z "},"]":{"ha":868,"x_min":174,"x_max":694,"o":"m 174 0 l 174 174 l 347 174 l 347 694 l 174 694 l 174 868 l 694 868 l 694 0 l 174 0 z "},"‚":{"ha":868,"x_min":174,"x_max":694,"o":"m 174 -174 l 174 0 l 347 0 l 347 174 l 694 174 l 694 0 l 521 0 l 521 -174 l 174 -174 z "},"„":{"ha":1042,"x_min":174,"x_max":868,"o":"m 174 0 l 174 347 l 868 347 l 868 0 l 174 0 z "},"“":{"ha":1042,"x_min":174,"x_max":868,"o":"m 174 521 l 174 868 l 868 868 l 868 521 l 174 521 z "},"”":{"ha":1042,"x_min":174,"x_max":868,"o":"m 174 521 l 174 868 l 868 868 l 868 521 l 174 521 z "},"‘":{"ha":694,"x_min":174,"x_max":521,"o":"m 174 521 l 174 868 l 521 868 l 521 521 l 174 521 z "},"’":{"ha":694,"x_min":174,"x_max":521,"o":"m 174 521 l 174 868 l 521 868 l 521 521 l 174 521 z "},"«":{"ha":1389,"x_min":174,"x_max":1215,"o":"m 347 174 l 347 347 l 174 347 l 174 521 l 347 521 l 347 694 l 694 694 l 694 521 l 868 521 l 868 694 l 1215 694 l 1215 521 l 1042 521 l 1042 347 l 1215 347 l 1215 174 l 868 174 l 868 347 l 694 347 l 694 174 l 347 174 m 521 347 l 688 347 l 688 521 l 521 521 l 521 347 z "},"»":{"ha":1389,"x_min":174,"x_max":1215,"o":"m 174 174 l 174 347 l 347 347 l 347 521 l 174 521 l 174 694 l 521 694 l 521 521 l 694 521 l 694 694 l 1042 694 l 1042 521 l 1215 521 l 1215 347 l 1042 347 l 1042 174 l 694 174 l 694 347 l 521 347 l 521 174 l 174 174 m 701 347 l 868 347 l 868 521 l 701 521 l 701 347 z "},"‹":{"ha":868,"x_min":174,"x_max":694,"o":"m 347 174 l 347 347 l 174 347 l 174 521 l 347 521 l 347 694 l 694 694 l 694 521 l 521 521 l 521 347 l 694 347 l 694 174 l 347 174 z "},"›":{"ha":868,"x_min":174,"x_max":694,"o":"m 174 174 l 174 347 l 347 347 l 347 521 l 174 521 l 174 694 l 521 694 l 521 521 l 694 521 l 694 347 l 521 347 l 521 174 l 174 174 z "},"\"":{"ha":1042,"x_min":174,"x_max":868,"o":"m 174 521 l 174 868 l 868 868 l 868 521 l 174 521 z "},"'":{"ha":694,"x_min":174,"x_max":521,"o":"m 174 521 l 174 868 l 521 868 l 521 521 l 174 521 z "},"ƒ":{"ha":1389,"x_min":174,"x_max":1215,"o":"m 174 -174 l 174 0 l 347 0 l 347 521 l 521 521 l 521 868 l 1215 868 l 1215 694 l 868 694 l 868 521 l 1042 521 l 1042 347 l 694 347 l 694 0 l 521 0 l 521 -174 l 174 -174 z "},"@":{"ha":1389,"x_min":174,"x_max":1215,"o":"m 347 0 l 347 174 l 174 174 l 174 694 l 347 694 l 347 868 l 1042 868 l 1042 694 l 1215 694 l 1215 521 l 1042 521 l 1042 347 l 521 347 l 521 174 l 1042 174 l 1042 0 l 347 0 z "},"&":{"ha":1215,"x_min":174,"x_max":1042,"o":"m 521 -174 l 521 0 l 347 0 l 347 174 l 174 174 l 174 347 l 347 347 l 347 521 l 174 521 l 174 694 l 347 694 l 347 868 l 521 868 l 521 1042 l 868 1042 l 868 868 l 1042 868 l 1042 694 l 521 694 l 521 521 l 868 521 l 868 347 l 521 347 l 521 174 l 1042 174 l 1042 0 l 868 0 l 868 -174 l 521 -174 z "},"¶":{"ha":1389,"x_min":174,"x_max":1215,"o":"m 521 0 l 521 347 l 347 347 l 347 521 l 174 521 l 174 694 l 347 694 l 347 868 l 1215 868 l 1215 0 l 521 0 z "},"§":{"ha":1215,"x_min":174,"x_max":1042,"o":"m 347 -174 l 347 0 l 694 0 l 694 174 l 347 174 l 347 347 l 174 347 l 174 521 l 347 521 l 347 694 l 174 694 l 174 868 l 347 868 l 347 1042 l 868 1042 l 868 868 l 521 868 l 521 694 l 868 694 l 868 521 l 1042 521 l 1042 347 l 868 347 l 868 174 l 1042 174 l 1042 0 l 868 0 l 868 -174 l 347 -174 m 521 347 l 694 347 l 694 521 l 521 521 l 521 347 z "},"©":{"ha":1736,"x_min":174,"x_max":1563,"o":"m 347 -174 l 347 0 l 174 0 l 174 868 l 347 868 l 347 1042 l 1389 1042 l 1389 868 l 1563 868 l 1563 0 l 1389 0 l 1389 -174 l 347 -174 m 521 694 l 1215 694 l 1215 868 l 521 868 l 521 694 m 868 347 l 1215 347 l 1215 521 l 868 521 l 868 347 m 521 0 l 1215 0 l 1215 174 l 521 174 l 521 0 z "},"®":{"ha":1736,"x_min":174,"x_max":1563,"o":"m 347 -174 l 347 0 l 174 0 l 174 868 l 347 868 l 347 1042 l 1389 1042 l 1389 868 l 1563 868 l 1563 0 l 1389 0 l 1389 -174 l 347 -174 m 521 521 l 694 521 l 694 694 l 1215 694 l 1215 868 l 521 868 l 521 521 m 521 0 l 1215 0 l 1215 521 l 868 521 l 868 174 l 521 174 l 521 0 z "},"™":{"ha":1736,"x_min":174,"x_max":1563,"o":"m 347 521 l 347 868 l 174 868 l 174 1042 l 1042 1042 l 1042 868 l 1215 868 l 1215 1042 l 1563 1042 l 1563 521 l 1389 521 l 1389 868 l 1215 868 l 1215 521 l 1042 521 l 1042 868 l 868 868 l 868 521 l 694 521 l 694 868 l 521 868 l 521 521 l 347 521 z "},"°":{"ha":1042,"x_min":174,"x_max":868,"o":"m 347 347 l 347 521 l 174 521 l 174 694 l 347 694 l 347 868 l 694 868 l 694 694 l 868 694 l 868 521 l 694 521 l 694 347 l 347 347 z "},"|":{"ha":694,"x_min":174,"x_max":521,"o":"m 174 -174 l 174 1042 l 521 1042 l 521 -174 l 174 -174 z "},"¦":{"ha":694,"x_min":174,"x_max":521,"o":"m 174 521 l 174 868 l 521 868 l 521 521 l 174 521 m 174 0 l 174 347 l 521 347 l 521 0 l 174 0 z "},"†":{"ha":1042,"x_min":174,"x_max":868,"o":"m 347 0 l 347 521 l 174 521 l 174 694 l 347 694 l 347 868 l 694 868 l 694 694 l 868 694 l 868 521 l 694 521 l 694 0 l 347 0 z "},"‡":{"ha":1042,"x_min":174,"x_max":868,"o":"m 347 0 l 347 174 l 174 174 l 174 347 l 347 347 l 347 521 l 174 521 l 174 694 l 347 694 l 347 868 l 694 868 l 694 694 l 868 694 l 868 521 l 694 521 l 694 347 l 868 347 l 868 174 l 694 174 l 694 0 l 347 0 z "},"¢":{"ha":1042,"x_min":174,"x_max":868,"o":"m 347 0 l 347 174 l 174 174 l 174 694 l 347 694 l 347 868 l 694 868 l 694 694 l 868 694 l 868 521 l 521 521 l 521 347 l 868 347 l 868 174 l 694 174 l 694 0 l 347 0 z "},"¤":{"ha":1389,"x_min":174,"x_max":1215,"o":"m 174 0 l 174 174 l 347 174 l 347 694 l 174 694 l 174 868 l 1215 868 l 1215 694 l 1042 694 l 1042 174 l 1215 174 l 1215 0 l 174 0 z "},"$":{"ha":1215,"x_min":174,"x_max":1042,"o":"m 347 -174 l 347 0 l 174 0 l 174 174 l 694 174 l 694 347 l 347 347 l 347 521 l 174 521 l 174 694 l 347 694 l 347 868 l 521 868 l 521 1042 l 868 1042 l 868 868 l 1042 868 l 1042 694 l 521 694 l 521 521 l 868 521 l 868 347 l 1042 347 l 1042 174 l 868 174 l 868 0 l 694 0 l 694 -174 l 347 -174 z "},"€":{"ha":1389,"x_min":174,"x_max":1215,"o":"m 521 0 l 521 174 l 347 174 l 347 347 l 174 347 l 174 521 l 347 521 l 347 694 l 521 694 l 521 868 l 1042 868 l 1042 694 l 1215 694 l 1215 521 l 868 521 l 868 347 l 1215 347 l 1215 174 l 1042 174 l 1042 0 l 521 0 m 694 521 l 861 521 l 861 694 l 694 694 l 694 521 m 694 174 l 861 174 l 861 347 l 694 347 l 694 174 z "},"£":{"ha":1215,"x_min":174,"x_max":1042,"o":"m 174 0 l 174 174 l 347 174 l 347 347 l 174 347 l 174 521 l 521 521 l 521 868 l 1042 868 l 1042 694 l 868 694 l 868 347 l 694 347 l 694 174 l 1042 174 l 1042 0 l 174 0 z "},"¥":{"ha":1389,"x_min":174,"x_max":1215,"o":"m 521 0 l 521 174 l 347 174 l 347 347 l 521 347 l 521 521 l 347 521 l 347 694 l 174 694 l 174 868 l 521 868 l 521 694 l 868 694 l 868 868 l 1215 868 l 1215 694 l 1042 694 l 1042 521 l 868 521 l 868 347 l 1042 347 l 1042 174 l 868 174 l 868 0 l 521 0 z "},"+":{"ha":1389,"x_min":174,"x_max":1215,"o":"m 521 0 l 521 347 l 174 347 l 174 521 l 521 521 l 521 868 l 868 868 l 868 521 l 1215 521 l 1215 347 l 868 347 l 868 0 l 521 0 z "},"×":{"ha":1042,"x_min":174,"x_max":868,"o":"m 174 174 l 174 347 l 347 347 l 347 521 l 174 521 l 174 694 l 868 694 l 868 521 l 694 521 l 694 347 l 868 347 l 868 174 l 174 174 z "},"÷":{"ha":1042,"x_min":174,"x_max":868,"o":"m 347 694 l 347 868 l 694 868 l 694 694 l 347 694 m 174 347 l 174 521 l 868 521 l 868 347 l 174 347 m 347 0 l 347 174 l 694 174 l 694 0 l 347 0 z "},"=":{"ha":1042,"x_min":174,"x_max":868,"o":"m 174 521 l 174 694 l 868 694 l 868 521 l 174 521 m 174 174 l 174 347 l 868 347 l 868 174 l 174 174 z "},">":{"ha":1042,"x_min":174,"x_max":868,"o":"m 174 0 l 174 174 l 347 174 l 347 347 l 521 347 l 521 521 l 347 521 l 347 694 l 174 694 l 174 868 l 521 868 l 521 694 l 694 694 l 694 521 l 868 521 l 868 347 l 694 347 l 694 174 l 521 174 l 521 0 l 174 0 z "},"<":{"ha":1042,"x_min":174,"x_max":868,"o":"m 521 0 l 521 174 l 347 174 l 347 347 l 174 347 l 174 521 l 347 521 l 347 694 l 521 694 l 521 868 l 868 868 l 868 694 l 694 694 l 694 521 l 521 521 l 521 347 l 694 347 l 694 174 l 868 174 l 868 0 l 521 0 z "},"±":{"ha":1389,"x_min":174,"x_max":1215,"o":"m 174 -174 l 174 0 l 521 0 l 521 347 l 174 347 l 174 521 l 521 521 l 521 868 l 868 868 l 868 521 l 1215 521 l 1215 347 l 868 347 l 868 0 l 1215 0 l 1215 -174 l 174 -174 z "},"~":{"ha":1215,"x_min":174,"x_max":1042,"o":"m 174 521 l 174 694 l 347 694 l 347 868 l 1042 868 l 1042 694 l 868 694 l 868 521 l 174 521 z "},"¬":{"ha":1215,"x_min":174,"x_max":1042,"o":"m 694 174 l 694 347 l 174 347 l 174 521 l 1042 521 l 1042 174 l 694 174 z "},"^":{"ha":1042,"x_min":174,"x_max":868,"o":"m 174 694 l 174 868 l 347 868 l 347 1042 l 694 1042 l 694 868 l 868 868 l 868 694 l 174 694 z "},"µ":{"ha":1215,"x_min":174,"x_max":1042,"o":"m 174 -174 l 174 868 l 521 868 l 521 174 l 694 174 l 694 868 l 1042 868 l 1042 174 l 868 174 l 868 0 l 521 0 l 521 -174 l 174 -174 z "},"%":{"ha":1389,"x_min":174,"x_max":1215,"o":"m 347 0 l 347 347 l 521 347 l 521 521 l 174 521 l 174 868 l 1042 868 l 1042 521 l 868 521 l 868 347 l 1215 347 l 1215 0 l 347 0 z "},"‰":{"ha":1563,"x_min":174,"x_max":1389,"o":"m 347 0 l 347 347 l 521 347 l 521 521 l 174 521 l 174 868 l 1042 868 l 1042 521 l 868 521 l 868 347 l 1389 347 l 1389 0 l 347 0 z "},"̈":{"ha":0,"x_min":82,"x_max":950,"o":"m 603 1215 l 603 1389 l 950 1389 l 950 1215 l 603 1215 m 82 1215 l 82 1389 l 429 1389 l 429 1215 l 82 1215 z "},"̀":{"ha":0,"x_min":174,"x_max":694,"o":"m 347 1042 l 347 1215 l 174 1215 l 174 1389 l 521 1389 l 521 1215 l 694 1215 l 694 1042 l 347 1042 z "},"́":{"ha":0,"x_min":174,"x_max":694,"o":"m 174 1042 l 174 1215 l 347 1215 l 347 1389 l 694 1389 l 694 1215 l 521 1215 l 521 1042 l 174 1042 z "},"̂":{"ha":0,"x_min":174,"x_max":868,"o":"m 174 1042 l 174 1215 l 347 1215 l 347 1389 l 694 1389 l 694 1215 l 868 1215 l 868 1042 l 174 1042 z "},"̃":{"ha":0,"x_min":174,"x_max":1042,"o":"m 174 1042 l 174 1215 l 347 1215 l 347 1389 l 1042 1389 l 1042 1215 l 868 1215 l 868 1042 l 174 1042 z "},"̄":{"ha":0,"x_min":174,"x_max":1042,"o":"m 174 694 l 174 868 l 1042 868 l 1042 694 l 174 694 z "},"̧":{"ha":0,"x_min":174,"x_max":694,"o":"m 174 -347 l 174 -174 l 347 -174 l 347 0 l 694 0 l 694 -174 l 521 -174 l 521 -347 l 174 -347 z "},"¨":{"ha":1042,"x_min":82,"x_max":950,"o":"m 603 1215 l 603 1389 l 950 1389 l 950 1215 l 603 1215 m 82 1215 l 82 1389 l 429 1389 l 429 1215 l 82 1215 z "},"`":{"ha":868,"x_min":174,"x_max":694,"o":"m 347 1042 l 347 1215 l 174 1215 l 174 1389 l 521 1389 l 521 1215 l 694 1215 l 694 1042 l 347 1042 z "},"´":{"ha":868,"x_min":174,"x_max":694,"o":"m 174 1042 l 174 1215 l 347 1215 l 347 1389 l 694 1389 l 694 1215 l 521 1215 l 521 1042 l 174 1042 z "},"ˆ":{"ha":1042,"x_min":174,"x_max":868,"o":"m 174 1042 l 174 1215 l 347 1215 l 347 1389 l 694 1389 l 694 1215 l 868 1215 l 868 1042 l 174 1042 z "},"˜":{"ha":1215,"x_min":174,"x_max":1042,"o":"m 174 1042 l 174 1215 l 347 1215 l 347 1389 l 1042 1389 l 1042 1215 l 868 1215 l 868 1042 l 174 1042 z "},"¯":{"ha":1215,"x_min":174,"x_max":1042,"o":"m 174 694 l 174 868 l 1042 868 l 1042 694 l 174 694 z "},"¸":{"ha":868,"x_min":174,"x_max":694,"o":"m 174 -347 l 174 -174 l 347 -174 l 347 0 l 694 0 l 694 -174 l 521 -174 l 521 -347 l 174 -347 z "}}}
